<svg xmlns="http://www.w3.org/2000/svg" width="36" height="714"><path fill-rule="evenodd" opacity=".149" fill="#f6b545" d="M18 0c9.941 0 18 8.059 18 18s-8.059 18-18 18S0 27.941 0 18 8.059 0 18 0z"/><path fill-rule="evenodd" fill="#f6b545" d="M23 26.662V672H13V26.662A9.996 9.996 0 018 18c0-5.523 4.477-10 10-10s10 4.477 10 10a9.996 9.996 0 01-5 8.662z"/><path fill-rule="evenodd" opacity=".302" fill="#f6b545" d="M18 678c9.941 0 18 8.059 18 18s-8.059 18-18 18-18-8.059-18-18 8.059-18 18-18z"/><path fill-rule="evenodd" fill="#f6b545" d="M18 686c5.523 0 10 4.477 10 10s-4.477 10-10 10-10-4.477-10-10 4.477-10 10-10z"/><path fill-rule="evenodd" fill="#f6b545" d="M13 670h10v23H13v-23z"/></svg>